<svg id="handwriting-title" xmlns="http://www.w3.org/2000/svg" viewBox="0 7 512 56" width="100%" height="60">
  <path 
    fill="none" 
    stroke="#111" 
    stroke-width="1.8" 
    stroke-linecap="round" 
    stroke-linejoin="round"
    d="M12.35 49.75Q9.60 49.75 7.28 49.30Q4.95 48.85 2.40 48.10Q0.75 47.60 0 47.55L0.45 38.20L5.10 38.20L6.35 44.60Q6.90 45.25 8.38 45.75Q9.85 46.25 11.90 46.25Q14.95 46.25 16.48 44.90Q18.00 43.55 18.00 41.20Q18.00 39.55 17.03 38.33Q16.05 37.10 14.33 36.08Q12.60 35.05 9.60 33.70Q5.65 31.90 2.92 29.13Q0.20 26.35 0.20 21.80Q0.20 19 1.65 16.70Q3.10 14.40 6.05 13Q9 11.60 13.40 11.60Q16.05 11.60 18.03 11.95Q20.00 12.30 22.25 12.90Q23.45 13.30 24.10 13.35L23.80 22.25L19.25 22.25L18.10 16.10Q17.75 15.65 16.53 15.27Q15.30 14.90 13.80 14.90Q11.05 14.90 9.68 16.20Q8.30 17.50 8.30 19.55Q8.30 21.35 9.45 22.70Q10.60 24.05 12.23 24.98Q13.85 25.90 17.20 27.55Q19.85 28.85 21.83 30.18Q23.80 31.50 25.20 33.60Q26.60 35.70 26.60 38.50Q26.60 41.25 25.28 43.80Q23.95 46.35 20.75 48.05Q17.55 49.75 12.35 49.75ZM29.15 41.20Q29.15 36.80 33.63 34.45Q38.10 32.10 45.40 32.05L45.40 31.05Q45.40 29.25 45 28.20Q44.60 27.15 43.55 26.63Q42.50 26.10 40.45 26.10Q38 26.10 36.08 26.68Q34.15 27.25 32.05 28.20L30.35 24.60Q31.15 23.95 32.95 23.03Q34.75 22.10 37.28 21.43Q39.80 20.75 42.55 20.75Q46.55 20.75 48.83 21.80Q51.10 22.85 52.08 25.05Q53.05 27.25 53.05 31.05L53.05 45.90L55.65 45.90L55.65 49.05Q54.50 49.30 52.45 49.55Q50.40 49.80 48.95 49.80Q47.05 49.80 46.43 49.25Q45.80 48.70 45.80 47.05L45.80 45.90Q44.55 47.40 42.45 48.58Q40.35 49.75 37.60 49.75Q35.25 49.75 33.33 48.73Q31.40 47.70 30.28 45.78Q29.15 43.85 29.15 41.20M41.50 45.15Q42.40 45.15 43.50 44.63Q44.60 44.10 45.40 43.35L45.40 35.40Q41.50 35.40 39.63 36.80Q37.75 38.20 37.75 40.40Q37.75 42.65 38.75 43.90Q39.75 45.15 41.50 45.15ZM58.50 45.90L61.15 45.45L61.15 26.65L58.20 25.75L58.20 21.85L67.30 20.75L67.70 20.95L68.70 22.35L68.70 24.85Q70.30 23.20 73.40 22.03Q76.50 20.85 78.70 20.85Q81.40 20.85 83.08 21.75Q84.75 22.65 85.60 24.55Q87.30 22.95 89.88 21.90Q92.45 20.85 95.10 20.85Q99.50 20.85 101.43 23.40Q103.35 25.95 103.35 31.75L103.35 45.45L106.35 45.90L106.35 49.20L92.80 49.20L92.80 45.90L95.05 45.45L95.05 31.95Q95.05 28.35 94.22 26.95Q93.40 25.55 91.20 25.55Q88.90 25.55 86.40 27.50Q86.70 29.35 86.70 31.75L86.70 45.45L89.50 45.90L89.50 49.20L75.85 49.20L75.85 45.90L78.35 45.45L78.35 31.80Q78.35 28.25 77.58 26.90Q76.80 25.55 74.65 25.55Q73.25 25.55 71.88 26.18Q70.50 26.80 69.50 27.70L69.50 45.45L72.20 45.90L72.20 49.20L58.50 49.20L58.50 45.90ZM132.10 49.70Q130.30 49.70 129.50 48.93Q128.70 48.15 128.70 46.65L128.70 45.55Q127.50 47.20 125.10 48.48Q122.70 49.75 120.25 49.75Q115.35 49.75 113.28 47.33Q111.20 44.90 111.20 39.20L111.20 25.30L108.85 24.65L108.85 21.45L118.25 20.80L118.30 20.80L119.40 21.50L119.40 39.40Q119.40 42.65 120.20 43.93Q121 45.20 123.05 45.20Q125.85 45.20 127.75 43.30L127.75 25.30L124.65 24.55L124.65 21.45L134.55 20.80L134.70 20.80L135.90 21.50L135.90 45.75L138.55 45.75L138.55 48.95Q136.85 49.30 135.43 49.50Q134 49.70 132.10 49.70ZM154.65 49.75Q147.80 49.75 144.50 45.88Q141.20 42 141.20 35.30Q141.20 30.75 142.90 27.45Q144.60 24.15 147.68 22.43Q150.75 20.70 154.90 20.70Q160.15 20.70 162.93 23.35Q165.70 26 165.80 30.85Q165.80 34.05 165.35 36L149.70 36Q149.95 40.25 151.78 42.48Q153.60 44.70 156.90 44.70Q158.75 44.70 160.78 44.08Q162.80 43.45 164.05 42.65L165.45 45.70Q164.15 47.15 161.03 48.45Q157.90 49.75 154.65 49.75M157.85 32.70L157.90 30.60Q157.90 27.45 157.05 25.80Q156.20 24.15 154.15 24.15Q152.05 24.15 150.90 25.98Q149.75 27.80 149.65 32.70L157.85 32.70ZM172.05 13.10L168.55 12.45L168.55 9.40L178.55 8.20L178.70 8.20L180.15 9.25L180.15 45.45L183.40 45.90L183.40 49.20L168.85 49.20L168.85 45.90L172.05 45.45L172.05 13.10ZM196.15 28.05L191.25 28.05L190.05 7.15L197.40 7.15L196.15 28.05ZM211.25 45.05Q211.60 45.60 212.88 46.05Q214.15 46.50 215.45 46.50Q217.50 46.50 218.58 45.63Q219.65 44.75 219.65 43.35Q219.65 41.85 218.25 40.88Q216.85 39.90 213.65 38.50L211.75 37.65Q208.50 36.20 206.88 34.13Q205.25 32.05 205.25 28.85Q205.25 26.55 206.60 24.73Q207.95 22.90 210.50 21.85Q213.05 20.80 216.50 20.80Q218.90 20.80 220.65 21.10Q222.40 21.40 224.20 21.85Q225.40 22.20 226 22.25L226 29.05L221.55 29.05L220.25 25.20Q220 24.75 219.05 24.38Q218.10 24 216.90 24Q215 24 213.90 24.83Q212.80 25.65 212.80 27.05Q212.80 28.65 214.05 29.58Q215.30 30.50 218.05 31.75L219.10 32.20Q223.15 33.90 225.45 35.88Q227.75 37.85 227.75 41.30Q227.75 45 224.80 47.38Q221.85 49.75 216.10 49.75Q213.45 49.75 211.40 49.33Q209.35 48.90 206.90 48.20L205.25 47.75L205.25 41.10L210 41.10L211.25 45.05ZM246.75 16.20L243.15 15.55L243.15 12.05L259.35 12.05L259.35 15.55L255.25 16.20L255.25 28.15L268.95 28.15L268.95 16.25L265.20 15.55L265.20 12.05L281.20 12.05L281.20 15.55L277.50 16.20L277.50 45.40L281.20 45.90L281.20 49.20L265.20 49.20L265.20 45.90L268.95 45.35L268.95 32.40L255.25 32.40L255.25 45.40L259.35 45.90L259.35 49.20L243.05 49.20L243.05 45.90L246.75 45.40L246.75 16.20ZM285.35 35.45Q285.35 30.65 287.25 27.33Q289.15 24 292.38 22.35Q295.60 20.70 299.45 20.70Q305.75 20.70 309.33 24.48Q312.90 28.25 312.90 35Q312.90 39.95 311 43.25Q309.10 46.55 305.90 48.15Q302.70 49.75 298.75 49.75Q292.50 49.75 288.93 45.98Q285.35 42.20 285.35 35.45M299.25 46.25Q301.65 46.25 302.83 43.68Q304 41.10 304 35.60Q304 29.75 302.88 26.98Q301.75 24.20 299.10 24.20Q294.20 24.20 294.20 34.85Q294.20 40.65 295.40 43.45Q296.60 46.25 299.25 46.25ZM317.45 45.90L320.10 45.45L320.10 26.65L317.15 25.75L317.15 21.85L326.25 20.75L326.65 20.95L327.65 22.35L327.65 24.85Q329.25 23.20 332.35 22.03Q335.45 20.85 337.65 20.85Q340.35 20.85 342.03 21.75Q343.70 22.65 344.55 24.55Q346.25 22.95 348.83 21.90Q351.40 20.85 354.05 20.85Q358.45 20.85 360.38 23.40Q362.30 25.95 362.30 31.75L362.30 45.45L365.30 45.90L365.30 49.20L351.75 49.20L351.75 45.90L354.00 45.45L354.00 31.95Q354.00 28.35 353.18 26.95Q352.35 25.55 350.15 25.55Q347.85 25.55 345.35 27.50Q345.65 29.35 345.65 31.75L345.65 45.45L348.45 45.90L348.45 49.20L334.80 49.20L334.80 45.90L337.30 45.45L337.30 31.80Q337.30 28.25 336.53 26.90Q335.75 25.55 333.60 25.55Q332.20 25.55 330.83 26.18Q329.45 26.80 328.45 27.70L328.45 45.45L331.15 45.90L331.15 49.20L317.45 49.20L317.45 45.90ZM381.40 49.75Q374.55 49.75 371.25 45.88Q367.95 42 367.95 35.30Q367.95 30.75 369.65 27.45Q371.35 24.15 374.43 22.43Q377.50 20.70 381.65 20.70Q386.90 20.70 389.68 23.35Q392.45 26 392.55 30.85Q392.55 34.05 392.10 36L376.45 36Q376.70 40.25 378.53 42.48Q380.35 44.70 383.65 44.70Q385.50 44.70 387.53 44.08Q389.55 43.45 390.80 42.65L392.20 45.70Q390.90 47.15 387.78 48.45Q384.65 49.75 381.40 49.75M384.60 32.70L384.65 30.60Q384.65 27.45 383.80 25.80Q382.95 24.15 380.90 24.15Q378.80 24.15 377.65 25.98Q376.50 27.80 376.40 32.70L384.60 32.70ZM424.40 34.40Q424.40 38.55 422.68 42.05Q420.95 45.55 417.58 47.65Q414.20 49.75 409.45 49.75Q408.65 49.75 407.73 49.60Q406.80 49.45 406.30 49.25L406.45 53.30L406.45 57.55L410.75 58.20L410.75 61.30L395.40 61.30L395.40 58.20L398.45 57.55L398.45 26.65L395.40 25.75L395.40 21.85L404.35 20.75L404.45 20.75L405.80 21.80L405.80 24.50Q406.95 22.95 409.03 21.83Q411.10 20.70 413.55 20.70Q418.35 20.70 421.38 24.08Q424.40 27.45 424.40 34.40M410.60 25.30Q409.30 25.30 408.15 25.83Q407 26.35 406.45 27.10L406.45 45.40Q406.80 45.85 407.68 46.15Q408.55 46.45 409.60 46.45Q412.40 46.45 414.08 43.75Q415.75 41.05 415.75 35Q415.75 30.10 414.35 27.70Q412.95 25.30 410.60 25.30ZM427.50 41.20Q427.50 36.80 431.98 34.45Q436.45 32.10 443.75 32.05L443.75 31.05Q443.75 29.25 443.35 28.20Q442.95 27.15 441.90 26.63Q440.85 26.10 438.80 26.10Q436.35 26.10 434.43 26.68Q432.50 27.25 430.40 28.20L428.70 24.60Q429.50 23.95 431.30 23.03Q433.10 22.10 435.63 21.43Q438.15 20.75 440.90 20.75Q444.90 20.75 447.18 21.80Q449.45 22.85 450.43 25.05Q451.40 27.25 451.40 31.05L451.40 45.90L454 45.90L454 49.05Q452.85 49.30 450.80 49.55Q448.75 49.80 447.30 49.80Q445.40 49.80 444.78 49.25Q444.15 48.70 444.15 47.05L444.15 45.90Q442.90 47.40 440.80 48.58Q438.70 49.75 435.95 49.75Q433.60 49.75 431.68 48.73Q429.75 47.70 428.63 45.78Q427.50 43.85 427.50 41.20M439.85 45.15Q440.75 45.15 441.85 44.63Q442.95 44.10 443.75 43.35L443.75 35.40Q439.85 35.40 437.98 36.80Q436.10 38.20 436.10 40.40Q436.10 42.65 437.10 43.90Q438.10 45.15 439.85 45.15ZM469.05 62.70Q462.15 62.70 459.08 60.55Q456 58.40 456 54.80Q456 52.80 457.35 51Q458.70 49.20 460.75 48.30Q458.40 46.95 458.40 44Q458.40 42.40 459.50 40.88Q460.60 39.35 462.45 38.55Q456.90 36.50 456.90 30.05Q456.90 27.20 458.60 25.08Q460.30 22.95 463.20 21.83Q466.10 20.70 469.60 20.70Q475.85 20.70 478.75 23Q479.45 22.15 480.95 21.38Q482.45 20.60 484.05 20.60L485.85 20.60L485.85 26.70L480.90 26.70Q481.40 28.10 481.40 29.55Q481.40 34.15 478.15 36.85Q474.90 39.55 468.90 39.55Q466.45 39.55 464.85 39.20Q464.55 39.80 464.38 40.45Q464.20 41.10 464.20 41.50Q464.20 43.05 465.35 43.63Q466.50 44.20 469.55 44.20L474.70 44.20Q485.25 44.20 485.25 51.75Q485.25 55.05 482.95 57.55Q480.65 60.05 476.93 61.38Q473.20 62.70 469.05 62.70M469.40 36.15Q471.50 36.15 472.43 34.58Q473.35 33 473.35 30.05Q473.35 26.85 472.40 25.40Q471.45 23.95 469.35 23.95Q465.10 23.95 465.10 29.85Q465.10 36.15 469.40 36.15M470 58.95Q472.75 58.95 474.70 57.50Q476.65 56.05 476.65 53.40Q476.65 51.30 475.60 50.43Q474.55 49.55 471.90 49.55L466.80 49.55Q466 49.55 465 49.45Q464.05 51 464.05 53.30Q464.05 58.95 470 58.95ZM501.15 49.75Q494.30 49.75 491.00 45.88Q487.70 42 487.70 35.30Q487.70 30.75 489.40 27.45Q491.10 24.15 494.18 22.43Q497.25 20.70 501.40 20.70Q506.65 20.70 509.43 23.35Q512.20 26 512.30 30.85Q512.30 34.05 511.85 36L496.20 36Q496.45 40.25 498.28 42.48Q500.10 44.70 503.40 44.70Q505.25 44.70 507.28 44.08Q509.30 43.45 510.55 42.65L511.95 45.70Q510.65 47.15 507.53 48.45Q504.40 49.75 501.15 49.75M504.35 32.70L504.40 30.60Q504.40 27.45 503.55 25.80Q502.70 24.15 500.65 24.15Q498.55 24.15 497.40 25.98Q496.25 27.80 496.15 32.70L504.35 32.70Z"
  />
</svg>
